<?xml version="1.0" encoding="UTF-8"?>
<svg version="1.1" xmlns="http://www.w3.org/2000/svg" width="256" height="215">
<path d="M0 0 C84.48 0 168.96 0 256 0 C256 70.95 256 141.9 256 215 C171.52 215 87.04 215 0 215 C0 144.05 0 73.1 0 0 Z " fill="#FCFCFC" transform="translate(0,0)"/>
<path d="M0 0 C2.37910069 1.89215026 4.65365075 3.85293963 6.921875 5.875 C8.24528642 6.88809426 9.57555675 7.89255155 10.921875 8.875 C10.35448638 12.27292055 9.3975527 13.70596984 6.76171875 15.890625 C6.13330078 16.41914062 5.50488281 16.94765625 4.85742188 17.4921875 C3.86838867 18.30042969 3.86838867 18.30042969 2.859375 19.125 C2.19615234 19.67929688 1.53292969 20.23359375 0.84960938 20.8046875 C-0.7860958 22.16973642 -2.43122451 23.52347909 -4.078125 24.875 C-7.80426758 23.54045957 -10.66574577 21.86661713 -13.828125 19.5 C-25.15386802 11.42935942 -36.03105347 9.4926801 -49.765625 9.5625 C-50.91885254 9.56813965 -52.07208008 9.5737793 -53.26025391 9.57958984 C-68.95911162 9.80319507 -83.62890602 12.83407716 -95.40234375 24.046875 C-105.1287413 34.65749051 -106.94470931 48.10258033 -106.4609375 61.98828125 C-105.75081809 73.48640966 -102.11390249 84.86010755 -93.8203125 93.125 C-79.36800063 105.44797439 -59.89223908 107.03799042 -41.59082031 106.08642578 C-29.54069839 105.07249209 -17.75225315 101.07691969 -8.640625 92.9375 C-6.078125 90.875 -6.078125 90.875 -4.296875 90.94140625 C-1.07380901 92.29759071 1.36905227 94.48445663 3.984375 96.75 C4.51353516 97.19730469 5.04269531 97.64460938 5.58789062 98.10546875 C8.13191898 100.26964845 10.61183222 102.46104526 12.921875 104.875 C0.8888518 118.87706336 -17.97160342 126.30858493 -36.078125 127.875 C-62.97726219 129.19312954 -90.39184045 127.52521937 -111.453125 108.625 C-124.74243523 96.06613058 -131.37802074 78.24235699 -132.2578125 60.1875 C-132.6281654 39.77694009 -126.62774396 22.02921614 -112.703125 7 C-108.32145863 2.91179396 -103.24025571 -0.12693802 -98.078125 -3.125 C-97.29695313 -3.59035156 -96.51578125 -4.05570313 -95.7109375 -4.53515625 C-68.50633301 -19.51142842 -25.66959358 -17.72114074 0 0 Z " fill="#E84F1E" transform="translate(183.078125,58.125)"/>
<path d="M0 0 C0 29.04 0 58.08 0 88 C-9 86 -9 86 -13 84 C-13.33 67.17 -13.66 50.34 -14 33 C-15.98 33.99 -17.96 34.98 -20 36 C-20.66 36 -21.32 36 -22 36 C-22 49.53 -22 63.06 -22 77 C-22.33 77 -22.66 77 -23 77 C-23 63.14 -23 49.28 -23 35 C-13 30 -13 30 -11 30 C-11 21.09 -11 12.18 -11 3 C-2 0 -2 0 0 0 Z " fill="#302581" transform="translate(114,72)"/>
<path d="M0 0 C8.58 0 17.16 0 26 0 C26 5.28 26 10.56 26 16 C17.42 16 8.84 16 0 16 C0 10.72 0 5.44 0 0 Z " fill="#3D3388" transform="translate(103,3)"/>
<path d="M0 0 C8.25 0 16.5 0 25 0 C25 4.95 25 9.9 25 15 C12.625 15.99 12.625 15.99 0 17 C0 11.39 0 5.78 0 0 Z " fill="#322782" transform="translate(104,27)"/>
<path d="M0 0 C1.62490954 -0.02698189 3.24994633 -0.04638757 4.875 -0.0625 C5.77992188 -0.07410156 6.68484375 -0.08570312 7.6171875 -0.09765625 C10 0 10 0 12 1 C12 30.7 12 60.4 12 91 C10.68 91 9.36 91 8 91 C8 62.29 8 33.58 8 4 C6.02 3.34 4.04 2.68 2 2 C1.34 1.34 0.68 0.68 0 0 Z " fill="#554C95" transform="translate(132,70)"/>
<path d="M0 0 C1.32 0.33 2.64 0.66 4 1 C4 29.38 4 57.76 4 87 C2.68 87 1.36 87 0 87 C0 58.29 0 29.58 0 0 Z " fill="#534994" transform="translate(152,72)"/>
<path d="M0 0 C3.15462875 1.28386054 3.82718482 2.12248801 6 5 C6.39891087 8.20814231 6.18540861 10.98567526 5 14 C2.80338744 16.22146112 1.43655032 16.92873958 -1.65625 17.43359375 C-9.25402916 17.44403026 -9.25402916 17.44403026 -12.625 15.4375 C-14.51234919 12.09174461 -15.06654582 9.85965765 -15 6 C-11.51636735 -0.60688951 -7.16199192 -1.48257794 0 0 Z " fill="#E65324" transform="translate(134,194)"/>
<path d="M0 0 C3.125 1.4375 3.125 1.4375 5 4 C5.86435076 8.24388435 5.66769207 11.69641072 3.6875 15.5625 C-0.73331289 17.92712085 -5.1154697 17.82372257 -10 17 C-13.1875 14.9375 -13.1875 14.9375 -15 12 C-15.77533825 7.65810577 -15.50177019 5.78610663 -13.125 2.0625 C-8.72715358 -0.84007863 -5.12542111 -0.87384229 0 0 Z " fill="#E55E33" transform="translate(229,194)"/>
<path d="M0 0 C0.33 0 0.66 0 1 0 C1 7.92 1 15.84 1 24 C3.97 24.99 6.94 25.98 10 27 C11.32 27.66 12.64 28.32 14 29 C14 41.21 14 53.42 14 66 C13.01 66.495 13.01 66.495 12 67 C12 54.79 12 42.58 12 30 C9.03 29.01 6.06 28.02 3 27 C3 42.84 3 58.68 3 75 C1.515 75.495 1.515 75.495 0 76 C0 50.92 0 25.84 0 0 Z " fill="#3F3586" transform="translate(165,78)"/>
<path d="M0 0 C0.33 0 0.66 0 1 0 C1 27.06 1 54.12 1 82 C0.01 81.67 -0.98 81.34 -2 81 C-2.33 64.17 -2.66 47.34 -3 30 C-4.98 30.99 -6.96 31.98 -9 33 C-9.66 33 -10.32 33 -11 33 C-11 46.53 -11 60.06 -11 74 C-11.33 74 -11.66 74 -12 74 C-12 60.14 -12 46.28 -12 32 C-2 27 -2 27 0 27 C0 18.09 0 9.18 0 0 Z " fill="#665E9E" transform="translate(103,75)"/>
<path d="M0 0 C5.94 0 11.88 0 18 0 C18 0.99 18 1.98 18 3 C13.38 3 8.76 3 4 3 C4 4.32 4 5.64 4 7 C7.96 7 11.92 7 16 7 C16 7.99 16 8.98 16 10 C12.04 10 8.08 10 4 10 C4 11.32 4 12.64 4 14 C8.62 14 13.24 14 18 14 C18.33 15.32 18.66 16.64 19 18 C12.73 18 6.46 18 0 18 C0 12.06 0 6.12 0 0 Z " fill="#4C4290" transform="translate(54,194)"/>
<path d="M0 0 C5 1 5 1 6.58203125 3.06640625 C6.98808594 3.89011719 7.39414063 4.71382812 7.8125 5.5625 C8.23144531 6.38878906 8.65039062 7.21507812 9.08203125 8.06640625 C9.38496094 8.70449219 9.68789062 9.34257812 10 10 C10.81360995 8.70903219 11.62585046 7.41720125 12.4375 6.125 C12.88996094 5.40570313 13.34242188 4.68640625 13.80859375 3.9453125 C15.02461501 2.0222453 15.02461501 2.0222453 16 0 C17.65 0 19.3 0 21 0 C21 5.94 21 11.88 21 18 C19.68 18 18.36 18 17 18 C16.505 13.05 16.505 13.05 16 8 C15.01 9.98 14.02 11.96 13 14 C11.35 14 9.7 14 8 14 C6.02 10.535 6.02 10.535 4 7 C3.67 10.3 3.34 13.6 3 17 C2.01 17 1.02 17 0 17 C0 11.39 0 5.78 0 0 Z " fill="#E76035" transform="translate(190,194)"/>
<path d="M0 0 C5 0 5 0 7.67578125 2.40625 C8.56897388 3.42515122 9.44759043 4.45698313 10.3125 5.5 C10.76689453 6.02464844 11.22128906 6.54929688 11.68945312 7.08984375 C12.8057012 8.38234153 13.90460622 9.68978142 15 11 C15.33 7.37 15.66 3.74 16 0 C17.32 0 18.64 0 20 0 C20 5.94 20 11.88 20 18 C14.59222965 16.91844593 13.02778084 15.40129994 9.6875 11.4375 C9.23310547 10.91736328 8.77871094 10.39722656 8.31054688 9.86132812 C7.19660757 8.58322934 6.09685112 7.29279345 5 6 C4.67 9.96 4.34 13.92 4 18 C2.68 18 1.36 18 0 18 C0 12.06 0 6.12 0 0 Z " fill="#483E8D" transform="translate(8,194)"/>
<path d="M0 0 C3.6196875 -0.0928125 3.6196875 -0.0928125 7.3125 -0.1875 C8.44619019 -0.22846802 8.44619019 -0.22846802 9.6027832 -0.27026367 C12.5057504 -0.30641955 14.51469976 -0.32675594 16.9609375 1.3203125 C18.56598855 3.9149439 18.31602864 6.02933076 18 9 C17.34 9.66 16.68 10.32 16 11 C16.26676204 12.98491642 16.26676204 12.98491642 17 15 C17.33 15.99 17.66 16.98 18 18 C15.75 17.875 15.75 17.875 13 17 C9 11.91891892 9 11.91891892 9 9 C10.98 8.67 12.96 8.34 15 8 C15 6.68 15 5.36 15 4 C11.04 3.67 7.08 3.34 3 3 C3 7.62 3 12.24 3 17 C2.01 17 1.02 17 0 17 C0 11.39 0 5.78 0 0 Z " fill="#352A82" transform="translate(76,194)"/>
<path d="M0 0 C2.78211944 0.37596209 4.5879284 0.67318459 6.8125 2.4375 C8 4 8 4 8 6 C8.45890625 5.55527344 8.9178125 5.11054688 9.390625 4.65234375 C10.00421875 4.08644531 10.6178125 3.52054688 11.25 2.9375 C11.85328125 2.36902344 12.4565625 1.80054688 13.078125 1.21484375 C13.71234375 0.81394531 14.3465625 0.41304687 15 0 C16.32 0.33 17.64 0.66 19 1 C17.02 3.31 15.04 5.62 13 8 C14.69694839 11.92094306 14.69694839 11.92094306 17.125 14.125 C19 16 19 16 19 18 C14.16743695 17.58578031 12.17320782 15.53586014 9 12 C8.2575 12.845625 7.515 13.69125 6.75 14.5625 C5.8425 15.366875 4.935 16.17125 4 17 C2.68 16.67 1.36 16.34 0 16 C1.98 13.36 3.96 10.72 6 8 C5.01 6.865625 4.02 5.73125 3 4.5625 C0 1.125 0 1.125 0 0 Z " fill="#E6582B" transform="translate(144,194)"/>
<path d="M0 0 C0.99 0.66 1.98 1.32 3 2 C2.67 2.99 2.34 3.98 2 5 C1.01 4.67 0.02 4.34 -1 4 C-4.54178598 3.74996036 -4.54178598 3.74996036 -8 4 C-8.66 4.66 -9.32 5.32 -10 6 C-9.67673447 9.59679066 -9.67673447 9.59679066 -9 13 C-5.04 13 -1.08 13 3 13 C3 13.99 3 14.98 3 16 C-0.67248619 18.35039116 -3.71157095 18.51756902 -8 18 C-11.4375 16.0625 -11.4375 16.0625 -14 13 C-14.79068249 9.82597458 -14.77040755 7.1764496 -14 4 C-10.41579114 -0.74040526 -5.54958248 -0.89375298 0 0 Z " fill="#E6582A" transform="translate(112,194)"/>
<path d="M0 0 C0.99 0.66 1.98 1.32 3 2 C3.3125 5.5 3.3125 5.5 3 9 C1 11 1 11 -1.09375 11.265625 C-1.8878125 11.26046875 -2.681875 11.2553125 -3.5 11.25 C-4.2940625 11.25515625 -5.088125 11.2603125 -5.90625 11.265625 C-8 11 -8 11 -10 9 C-10.3267107 5.92891945 -10.48138276 3.84949899 -8.9375 1.125 C-5.92517484 -0.62409203 -3.40497373 -0.30401551 0 0 Z " fill="#FDF9F7" transform="translate(133,197)"/>
<path d="M0 0 C2.51594502 0.08234002 3.86661565 0.21158988 6.125 1.375 C7.62918055 4.48363981 6.79015436 7.03805538 6.0625 10.3125 C4.47355928 11.90144072 2.81448576 11.48248411 0.625 11.5 C-0.57962891 11.52126953 -0.57962891 11.52126953 -1.80859375 11.54296875 C-3.9375 11.3125 -3.9375 11.3125 -5.9375 9.3125 C-6.1875 5.8125 -6.1875 5.8125 -5.9375 2.3125 C-3.9375 0.3125 -3.9375 0.3125 0 0 Z " fill="#FDF9F7" transform="translate(223.9375,196.6875)"/>
<path d="M0 0 C6.6 0 13.2 0 20 0 C20 0.99 20 1.98 20 3 C17.36 3 14.72 3 12 3 C12 7.95 12 12.9 12 18 C10.68 18 9.36 18 8 18 C8 13.05 8 8.1 8 3 C5.36 3 2.72 3 0 3 C0 2.01 0 1.02 0 0 Z " fill="#473D8C" transform="translate(31,194)"/>
<path d="M0 0 C6.6 0 13.2 0 20 0 C20 0.99 20 1.98 20 3 C17.03 3 14.06 3 11 3 C11 7.62 11 12.24 11 17 C10.01 17 9.02 17 8 17 C8 12.38 8 7.76 8 3 C5.36 3 2.72 3 0 3 C0 2.01 0 1.02 0 0 Z " fill="#E64918" transform="translate(167,194)"/>
<path d="M0 0 C5 1 5 1 6.36328125 2.5234375 C9 7.66666667 9 7.66666667 9 11 C8.01 11 7.02 11 6 11 C5.34 9.68 4.68 8.36 4 7 C3.67 10.3 3.34 13.6 3 17 C2.01 17 1.02 17 0 17 C0 11.39 0 5.78 0 0 Z " fill="#E65122" transform="translate(190,194)"/>
<path d="M0 0 C0.66 0.66 1.32 1.32 2 2 C2.66 1.67 3.32 1.34 4 1 C4.66 3.31 5.32 5.62 6 8 C7.43655854 8.08131463 8.8744483 8.13933559 10.3125 8.1875 C11.11300781 8.22230469 11.91351563 8.25710937 12.73828125 8.29296875 C15.47851584 7.93801608 16.29171079 7.10633718 18 5 C18.6875 6.8125 18.6875 6.8125 19 9 C17.32704512 11.34670462 16.33198517 11.93833093 13.4765625 12.46875 C5.85353906 12.55228998 5.85353906 12.55228998 1.8125 9.9375 C-0.39370285 6.36192987 -0.40488369 4.12981363 0 0 Z " fill="#E76238" transform="translate(214,199)"/>
<path d="M0 0 C0.99 0 1.98 0 3 0 C3 5.61 3 11.22 3 17 C2.01 17 1.02 17 0 17 C0 14.69 0 12.38 0 10 C-2.64 10 -5.28 10 -8 10 C-8.33 9.01 -8.66 8.02 -9 7 C-6.03 7 -3.06 7 0 7 C0 4.69 0 2.38 0 0 Z " fill="#E54F1F" transform="translate(251,194)"/>
<path d="M0 0 C3.67167686 0.04782213 5.70251242 0.28238295 8.3125 2.9375 C8.93125 3.7625 9.55 4.5875 10.1875 5.4375 C9.8575 6.0975 9.5275 6.7575 9.1875 7.4375 C8.5275 7.4375 7.8675 7.4375 7.1875 7.4375 C6.74792969 6.94636719 6.30835938 6.45523438 5.85546875 5.94921875 C3.65089762 3.95116482 2.42295816 4.12291486 -0.5 4.25 C-1.71236328 4.29060547 -1.71236328 4.29060547 -2.94921875 4.33203125 C-3.56410156 4.36683594 -4.17898437 4.40164062 -4.8125 4.4375 C-4.8125 5.0975 -4.8125 5.7575 -4.8125 6.4375 C-6.1325 6.4375 -7.4525 6.4375 -8.8125 6.4375 C-6.63328911 1.76776238 -5.27065379 0.1343345 0 0 Z " fill="#E65324" transform="translate(128.8125,193.5625)"/>
<path d="M0 0 C0.66 0.66 1.32 1.32 2 2 C4.89883083 2.24339551 4.89883083 2.24339551 8.125 2.125 C9.76855469 2.09792969 9.76855469 2.09792969 11.4453125 2.0703125 C12.28835937 2.04710937 13.13140625 2.02390625 14 2 C14 2.99 14 3.98 14 5 C10.33755697 7.34396354 7.27605847 7.52512999 3 7 C0.0625 4.5 0.0625 4.5 -2 2 C-1.34 1.34 -0.68 0.68 0 0 Z " fill="#E97651" transform="translate(101,205)"/>
<path d="M0 0 C0.99 0 1.98 0 3 0 C3 5.94 3 11.88 3 18 C1.68 18 0.36 18 -1 18 C-0.505 9.09 -0.505 9.09 0 0 Z " fill="#372D84" transform="translate(25,194)"/>
<path d="M0 0 C0.99 0 1.98 0 3 0 C3 5.61 3 11.22 3 17 C2.01 17 1.02 17 0 17 C0 11.39 0 5.78 0 0 Z " fill="#E54B1B" transform="translate(238,194)"/>
<path d="M0 0 C0.99 0 1.98 0 3 0 C3 5.61 3 11.22 3 17 C2.01 17 1.02 17 0 17 C0 11.39 0 5.78 0 0 Z " fill="#30257F" transform="translate(2,194)"/>
<path d="M0 0 C-0.04125 0.9075 -0.0825 1.815 -0.125 2.75 C-0.00468444 5.8782046 0.3914708 7.38614006 2 10 C-0.25 9.875 -0.25 9.875 -3 9 C-7 3.91891892 -7 3.91891892 -7 1 C-4.50935112 0.31292445 -2.62113708 0 0 0 Z " fill="#42398A" transform="translate(92,202)"/>
<path d="M0 0 C0.33 1.32 0.66 2.64 1 4 C4.96 4 8.92 4 13 4 C13 4.99 13 5.98 13 7 C8.38 7 3.76 7 -1 7 C-0.67 4.69 -0.34 2.38 0 0 Z " fill="#3D3385" transform="translate(57,197)"/>
<path d="M0 0 C0.33 0 0.66 0 1 0 C1 5.28 1 10.56 1 16 C0.01 16 -0.98 16 -2 16 C-7 10.65116279 -7 10.65116279 -7 8 C-4.13275314 8.57344937 -3.1385485 8.8614515 -1 11 C-0.67 7.37 -0.34 3.74 0 0 Z " fill="#584F97" transform="translate(24,194)"/>
<path d="M0 0 C0.66 0 1.32 0 2 0 C1.91291331 1.45945288 1.80473093 2.91765868 1.6875 4.375 C1.62949219 5.18710938 1.57148438 5.99921875 1.51171875 6.8359375 C1 9 1 9 -2 11 C-4.26171875 10.9765625 -4.26171875 10.9765625 -6.6875 10.625 C-7.49574219 10.51414063 -8.30398437 10.40328125 -9.13671875 10.2890625 C-9.75160156 10.19367188 -10.36648437 10.09828125 -11 10 C-11 9.67 -11 9.34 -11 9 C-7.535 8.505 -7.535 8.505 -4 8 C-3.34 6.02 -2.68 4.04 -2 2 C-1.34 2 -0.68 2 0 2 C0 1.34 0 0.68 0 0 Z " fill="#E76D45" transform="translate(138,199)"/>
<path d="M0 0 C1.51400391 0.01740234 1.51400391 0.01740234 3.05859375 0.03515625 C4.07050781 0.04417969 5.08242187 0.05320313 6.125 0.0625 C7.29869141 0.07990234 7.29869141 0.07990234 8.49609375 0.09765625 C8.49609375 0.42765625 8.49609375 0.75765625 8.49609375 1.09765625 C6.47786458 1.55338542 4.45963542 2.00911458 2.44140625 2.46484375 C0.28889411 3.00240053 0.28889411 3.00240053 -1.50390625 5.09765625 C-2.15158418 7.66826936 -2.15158418 7.66826936 -2.50390625 10.09765625 C-4.08928943 7.57969472 -4.54127185 6.41900039 -4.19140625 3.41015625 C-3.21485242 0.12538426 -3.21485242 0.12538426 0 0 Z " fill="#E75121" transform="translate(219.50390625,194.90234375)"/>
<path d="M0 0 C0.66 0.66 1.32 1.32 2 2 C2.66 1.67 3.32 1.34 4 1 C4.66 3.64 5.32 6.28 6 9 C5.01 9.66 4.02 10.32 3 11 C0.39665076 8.28817788 0.00543309 7.10866187 -0.1875 3.25 C-0.125625 2.1775 -0.06375 1.105 0 0 Z " fill="#E7683F" transform="translate(214,199)"/>
<path d="M0 0 C0.66 0.33 1.32 0.66 2 1 C2 4.3 2 7.6 2 11 C1.01 11 0.02 11 -1 11 C-1.02688151 9.35425434 -1.04634123 7.70838587 -1.0625 6.0625 C-1.07410156 5.14597656 -1.08570313 4.22945312 -1.09765625 3.28515625 C-1 1 -1 1 0 0 Z " fill="#E54A19" transform="translate(191,200)"/>
<path d="M0 0 C0 3 0 3 -1.375 4.6875 C-3 6 -3 6 -5 6 C-5.2475 6.61875 -5.495 7.2375 -5.75 7.875 C-7.20628639 10.35068687 -8.37812506 10.95125002 -11 12 C-8.47295673 6.78797325 -4.38226641 3.6119868 0 0 Z " fill="#E65526" transform="translate(76,61)"/>
<path d="M0 0 C0.33 0.99 0.66 1.98 1 3 C-2.3 3 -5.6 3 -9 3 C-9.33 3.66 -9.66 4.32 -10 5 C-10 4.34 -10 3.68 -10 3 C-12.97 3 -15.94 3 -19 3 C-19 2.67 -19 2.34 -19 2 C-12.48755792 1.30491177 -6.4489191 0.68090291 0 2 C0 1.34 0 0.68 0 0 Z " fill="#E86E47" transform="translate(186,194)"/>
<path d="M0 0 C-1 1.5 -1 1.5 -3 3 C-5.71846235 3.27345479 -8.25677199 3.13491285 -11 3 C-11 2.34 -11 1.68 -11 1 C-3.57142857 -1.42857143 -3.57142857 -1.42857143 0 0 Z " fill="#E54F1F" transform="translate(116,208)"/>
<path d="M0 0 C1.98 0.99 1.98 0.99 4 2 C4 3.98 4 5.96 4 8 C3.01 8.495 3.01 8.495 2 9 C1.34 6.03 0.68 3.06 0 0 Z " fill="#2F257F" transform="translate(90,195)"/>
<path d="M0 0 C2.3125 -0.25 2.3125 -0.25 5 0 C6.8125 2 6.8125 2 8 4 C7.67 4.66 7.34 5.32 7 6 C5 6 5 6 3.5 4.5625 C3.005 4.046875 2.51 3.53125 2 3 C1.34 2.67 0.68 2.34 0 2 C0 1.34 0 0.68 0 0 Z " fill="#E65121" transform="translate(131,195)"/>
<path d="M0 0 C2.62187494 1.04874998 3.79371361 1.64931313 5.25 4.125 C5.4975 4.74375 5.745 5.3625 6 6 C4.35 5.67 2.7 5.34 1 5 C0.67 3.35 0.34 1.7 0 0 Z " fill="#E7663E" transform="translate(157,206)"/>
<path d="M0 0 C2.25 0.25 2.25 0.25 4 1 C1.03 3.475 1.03 3.475 -2 6 C-2.66 5.34 -3.32 4.68 -4 4 C-2.25 1.9375 -2.25 1.9375 0 0 Z " fill="#E54D1E" transform="translate(159,194)"/>
<path d="M0 0 C6.15234375 0.5859375 6.15234375 0.5859375 8 1 C8.33 1.66 8.66 2.32 9 3 C6.03 3 3.06 3 0 3 C0 2.01 0 1.02 0 0 Z " fill="#E54817" transform="translate(219,208)"/>
<path d="M0 0 C0.99 0.33 1.98 0.66 3 1 C3 3.31 3 5.62 3 8 C1.5 6.8125 1.5 6.8125 0 5 C-0.1875 2.3125 -0.1875 2.3125 0 0 Z " fill="#E64E1E" transform="translate(231,199)"/>
<path d="M0 0 C0 1.98 0 3.96 0 6 C-0.99 6.33 -1.98 6.66 -3 7 C-3 5.02 -3 3.04 -3 1 C-1 0 -1 0 0 0 Z " fill="#E54F20" transform="translate(101,200)"/>
<path d="M0 0 C0.66 0 1.32 0 2 0 C1.67 1.32 1.34 2.64 1 4 C-0.65 4.33 -2.3 4.66 -4 5 C-2.71937515 3.2925002 -1.38232443 1.62626404 0 0 Z " fill="#E54C1C" transform="translate(148,206)"/>
<path d="M0 0 C0.66 0 1.32 0 2 0 C2 1.98 2 3.96 2 6 C1.01 6 0.02 6 -1 6 C-0.67 4.02 -0.34 2.04 0 0 Z " fill="#E75F33" transform="translate(138,199)"/>
<path d="M0 0 C1.32 0.33 2.64 0.66 4 1 C3.34 2.98 2.68 4.96 2 7 C0 5 0 5 -0.125 2.375 C-0.08375 1.59125 -0.0425 0.8075 0 0 Z " fill="#E7643A" transform="translate(119,200)"/>
<path d="M0 0 C3.3 0 6.6 0 10 0 C9.01 0.33 8.02 0.66 7 1 C7 1.66 7 2.32 7 3 C4.03824877 2.38722388 2.61941217 1.74627478 0 0 Z " fill="#E55E34" transform="translate(124,194)"/>
</svg>
